HIERARCHY
ROOT pelvis
{
	OFFSET 0	0	0
	CHANNELS 6 Xposition Yposition Zposition Xrotation Yrotation Zrotation
	JOINT lThigh
	{
		OFFSET 0.0554835451766849	-0.0780156999826431	-0.014555293135345
		CHANNELS 3 Xrotation Yrotation Zrotation
		JOINT lCalf
		{
			OFFSET 0.0386000610888004	-0.354976981878281	0.00789703335613012
			CHANNELS 3 Xrotation Yrotation Zrotation
			JOINT lFoot
			{
				OFFSET -0.013784296810627	-0.387481331825256	-0.0352424904704094
				CHANNELS 3 Xrotation Yrotation Zrotation
				JOINT lSole
				{
					OFFSET 0.035913921892643	-0.0549436807632446	0.114341367036104
					CHANNELS 3 Xrotation Yrotation Zrotation
				}
			}
		}
	}
	JOINT rThigh
	{
		OFFSET -0.0577564621344209	-0.0869878977537155	-0.0105069316923618
		CHANNELS 3 Xrotation Yrotation Zrotation
		JOINT rCalf
		{
			OFFSET -0.0389910340309143	-0.350051045417786	-0.00204111263155937
			CHANNELS 3 Xrotation Yrotation Zrotation
			JOINT rFoot
			{
				OFFSET 0.0172116681933403	-0.37867683172226	-0.0321649238467216
				CHANNELS 3 Xrotation Yrotation Zrotation
				JOINT rSole
				{
					OFFSET -0.0279387757182121	-0.0565910339355469	0.121788941323757
					CHANNELS 3 Xrotation Yrotation Zrotation
				}
			}
		}
	}
	JOINT abomen
	{
		OFFSET 0.00430829357355833	0.119877316057682	-0.0367913357913494
		CHANNELS 3 Xrotation Yrotation Zrotation
		JOINT chest1
		{
			OFFSET 0.0060038398951292	0.133516728878021	0.026463158428669
			CHANNELS 3 Xrotation Yrotation Zrotation
			JOINT chest2
			{
				OFFSET -0.00177131965756416	0.0555925220251083	0.00152836926281452
				CHANNELS 3 Xrotation Yrotation Zrotation
				JOINT neck
				{
					OFFSET -0.011509332805872	0.205456577241421	-0.0378115326166153
					CHANNELS 3 Xrotation Yrotation Zrotation
					JOINT head
					{
						OFFSET 0.00881651788949966	0.0874870419502258	0.0427621193230152
						CHANNELS 3 Xrotation Yrotation Zrotation
					}
				}
				JOINT lShoulder
				{
					OFFSET 0.0672564376145601	0.110134862363338	-0.0185300260782242
					CHANNELS 3 Xrotation Yrotation Zrotation
					JOINT lUpperArm
					{
						OFFSET 0.117079876363277	0.0395155102014542	-0.0178751684725285
						CHANNELS 3 Xrotation Yrotation Zrotation
						JOINT lForearm
						{
							OFFSET 0.23239529132843	-0.0108031630516052	-0.0195480491966009
							CHANNELS 3 Xrotation Yrotation Zrotation
							JOINT lHand
							{
								OFFSET 0.245249301195145	0.00915718078613281	-0.00920860469341278
								CHANNELS 3 Xrotation Yrotation Zrotation
							}
						}
					}
				}
				JOINT rShoulder
				{
					OFFSET -0.0767905097454786	0.10787209123373	-0.0221287682652473
					CHANNELS 3 Xrotation Yrotation Zrotation
					JOINT rUpperArm
					{
						OFFSET -0.107205338776112	0.0394553542137146	-0.00892643816769123
						CHANNELS 3 Xrotation Yrotation Zrotation
						JOINT rForearm
						{
							OFFSET -0.237343594431877	-0.00905051827430725	-0.026978388428688
							CHANNELS 3 Xrotation Yrotation Zrotation
							JOINT rHand
							{
								OFFSET -0.247722119092941	0.00493180751800537	-0.0069025345146656
								CHANNELS 3 Xrotation Yrotation Zrotation
							}
						}
					}
				}
			}
		}
	}
}
MOTION
Frames: 12
Frame Time: 0.0833
   1.09394     -1.265   0.833706    96.4482    135.359   -8.49458   0.539548   -1.32354    4.35042    53.4367   -8.14462   -1.39128     3.1424     9.5243  -0.569971         -0          0         -0    170.207    178.016   -176.689    11.2384   0.721695    1.44397    177.176   -171.024    176.658         -0          0         -0    8.83652  -0.389228    2.70553    177.945    178.921    -178.46    2.39379 -0.0482825  0.0364705   0.153208    4.40754   -3.85601    6.20937    5.20538   -2.25383    1.37745    2.50657    -22.884    178.138   -163.044    120.269    26.5147   -23.5489    10.5786    178.298    179.456    173.289    2.11867   0.254085     22.498    5.34323    13.8128    53.7615    5.21063    11.8678   -4.95298    173.556   -177.268   -173.741
    1.1006   -1.26146   0.834354    96.5483    135.432   -8.61085    179.069   -178.678    -175.69    55.6639   -7.06588   -1.41029    5.11135    9.60654  -0.684267         -0          0         -0    171.006    178.372   -176.631    10.9662   0.818058    1.60341    176.812    -171.24    176.373         -0          0         -0    9.13528 -0.0704708    2.80459    177.866    178.917   -178.506     2.3297  0.0350163  0.0055027   0.110543    4.33247   -3.86059    6.26049    5.48711   -2.27691    1.42673    2.53207   -22.9887    178.437   -163.334    120.541    26.5837   -23.1357    10.4029    178.441    179.257     173.18    1.99744   0.451308    22.3376    5.04572    13.9884     53.337    5.13367    12.3254   -4.83064    173.571   -177.403     -173.9
   1.10703   -1.25786   0.834914    96.6198    135.495   -8.65733    177.644   -178.613   -175.828    57.6772   -6.21287   -1.55117    6.48245    9.69595  -0.490774         -0          0         -0    171.765    178.749   -176.624    10.6782   0.831821    1.75783    176.426    -171.43    176.143         -0          0         -0     9.4159   0.254058    2.85605     177.78    178.926    -178.56    2.28604   0.120538 -0.0131092  0.0744186    4.26712   -3.86758     6.3065    5.74692   -2.31284    1.41918    2.55954   -23.0706    178.684    -163.64    120.765    26.5637    -22.647    10.1121    178.662    179.072    173.103    1.85299   0.645782    22.1827    4.72496    14.1509    52.9009    5.02489    12.7685   -4.74535    173.611   -177.526   -174.068
   1.11333    -1.2543    0.83545    96.6724    135.514   -8.66252     176.23   -178.592   -176.016    59.5673    -5.5586   -1.71681    6.59355    9.88147  0.0772865         -0          0         -0    172.432    179.191   -176.649    10.5238   0.903667    1.87301        176   -171.704    176.047         -0          0         -0    9.68743   0.608754    2.84288     177.64    178.935   -178.602      2.295   0.242223 -0.0147392  0.0446998    4.24044   -3.81613    6.35656    5.90976   -2.38902     1.3459    2.59628   -23.1249    178.971   -163.964    121.018    26.7438   -22.1431    9.76617    179.087    178.902    172.829    1.69344   0.810578    22.0426    4.35715    14.2637    52.4643    4.94913    13.1948   -4.70155    173.678   -177.644   -174.197
    1.11952    -1.25078     0.83605     96.7119     135.529    -8.66408     174.801    -178.583    -176.184     61.3074    -4.98656    -1.91527     5.61055     10.1814    0.760894          -0           0          -0     173.213     179.538    -176.622     10.1056      1.0938     1.91666     175.645    -171.825     176.024          -0           0          -0     9.98484    0.935129     2.82946     177.436     178.959    -178.652     2.35101    0.361946 -0.00748386     179.999     175.758     176.228     6.39918     6.08537    -2.47467     1.29701     2.61096    -23.2153     179.273    -164.347     121.233     26.8186    -21.7333     9.57419     179.319     178.758     172.863     1.50199    0.992851     21.9181     3.98157     14.3987     52.0203     4.86707     13.6023    -4.67254     173.685    -177.741     -174.47
  1.12578  -1.24722  0.836705    96.794    135.52  -8.68986   173.447  -178.601  -176.352   62.7845  -4.43476  -2.13029   4.07577   10.5017   1.48083        -0         0        -0    174.02   179.876  -176.582    9.7053   1.32444    1.9326   175.286  -171.955   176.067        -0         0        -0   10.3004   1.26121   2.78645   177.218   178.979  -178.703   2.42775  0.491517 0.0111877   179.975   175.733    176.29   6.43735   6.23405  -2.57422   1.24868   2.63644  -23.2718   179.582  -164.757   121.399   26.9057  -21.3544   9.43653   179.517   178.621   172.945   1.29693   1.16651   21.7879   3.57227   14.5262   51.6098   4.76991    13.979  -4.67401   173.675  -177.834  -174.755
  1.13206  -1.24363  0.837407   96.8974   135.478  -8.72691   172.185  -178.603  -176.516   63.9473   -3.9557  -2.42918   2.54128   10.6815   2.11418        -0         0        -0   174.911  -179.858  -176.527   9.18057   1.61566   1.92615   174.981  -172.037   176.114        -0         0        -0   10.6041   1.58228    2.7246   177.019   178.992  -178.755   2.49723  0.636859 0.0335643   179.989   175.693   176.356   6.45925   6.36996  -2.67132     1.212   2.67921  -23.3038    179.88  -165.168   121.534   26.9835  -20.9719   9.31536   179.682    178.51   173.018   1.08446   1.33318   21.6529   3.14698   14.6766    51.228   4.66955   14.3064  -4.70274   173.668  -177.922  -175.039
  1.13834  -1.23996  0.838153   97.0468   135.419  -8.78534   170.985  -178.634  -176.709    64.865  -3.56735  -2.72337   1.30475   10.6823    2.5993        -0         0        -0   175.809  -179.556  -176.459    8.7046   1.85546   1.87111   174.659  -172.185    176.19        -0         0        -0   10.9177   1.89486    2.6457   176.861   178.999   -178.82   2.55557  0.792533 0.0589897 0.0178066   4.37179  -3.59503   6.46278   6.48678  -2.76323    1.1663   2.77033  -23.3101  0.157157  -14.4101  -58.3926   27.0019   -20.592   9.22574   179.857   178.408   173.101  0.854678   1.48867    21.514   2.68161   14.8216   50.8847   4.54305   14.5851  -4.75329   173.705   -178.02  -175.298
  1.14464  -1.23628  0.838906    97.197   135.346  -8.83904   169.824  -178.634  -176.914   65.5303  -3.32961  -3.04055  0.377719   10.4956   3.06966        -0         0        -0   176.738  -179.301  -176.381   8.16742   2.10617   1.79628   174.354  -172.302   176.237        -0         0        -0   11.2003   2.19565   2.55272   176.744       179  -178.887    2.5915  0.955761 0.0825485   0.08602   4.49113  -3.56584   6.44453   6.63288  -2.84334   1.14527   2.86326  -23.2852  0.433557  -14.0001  -58.3385   27.0149  -20.2232   9.15729   179.955   178.303   173.173  0.643205   1.65284   21.3814   2.19565   14.9878   50.5791   4.40322   14.8451   -4.8453   173.701  -178.092  -175.557
 1.15092 -1.23256 0.839636   97.353  135.258  -8.8904  168.719 -178.597 -177.115  65.9282 -3.17869 -3.38792  179.657  169.768 -176.468       -0        0       -0   177.68 -179.088 -176.306   7.6204  2.34095  1.71649  174.055 -172.411  176.277       -0        0       -0  11.4522  2.48862   2.4509  176.666  178.999 -178.954  2.61761  1.12638 0.099954 0.194785  4.58069 -3.53143  6.41014  6.72562 -2.91245  1.14546   2.9778 -23.2373 0.692551 -13.5945  -58.321  26.9993 -19.8662  9.13066 0.007704   1.7967 -6.78963 0.438504  1.81564  21.2291  1.69231  15.1544  50.3216  4.24947  15.0819 -4.97951  173.688 -178.158 -175.776
 1.15717 -1.22877 0.840343  97.5045  135.171 -8.93239  167.661 -178.543  -177.33   66.109 -3.24513 -3.77921  178.964   170.11 -176.071       -0        0       -0   178.63 -178.885 -176.238   7.0566  2.56272  1.63707  173.756 -172.512  176.336       -0        0       -0   11.694  2.77216  2.34585  176.593  179.013 -179.025   2.6324  1.30145 0.111111 0.321468  4.68713 -3.50028  6.37253  6.79475  -2.9771  1.14696  3.09846  -23.161 0.993179 -13.1941 -58.2989  27.0462  -19.512   9.1282 0.126502  1.92447 -6.68854 0.224178  1.96908    21.06   1.1929  15.3051  50.0898  4.12904  15.3207 -5.09763  173.684 -178.217 -175.991
   1.1634  -1.22494  0.841014    97.649   135.081  -8.97157   166.663  -178.448  -177.532   66.0438  -3.42866  -4.22581   178.158   170.439  -175.714        -0         0        -0   179.591  -178.705   -176.19   6.47791   2.79439   1.59059    173.48  -172.601     176.4        -0         0        -0   11.9087   3.05494    2.2492   176.533   179.035  -179.096   2.64408   1.47586  0.110809  0.464908   4.79701  -3.46397   6.34402   6.83936  -3.04326   1.17725   3.21117  -23.0657   1.29007  -12.7903  -58.2903   27.0364  -19.2252   9.11727 0.0411937   1.96951  -6.64471 0.0314938   2.13509   20.8717  0.686715   15.4676   49.9016   4.02399   15.5514  -5.24558   173.601  -178.272  -176.202
